<svg viewBox="0 0 781 796" xmlns="http://www.w3.org/2000/svg"><g fill="none" fill-rule="evenodd"><ellipse cx="390.5" cy="398" rx="385.5" ry="393" stroke="#000" stroke-width="10"/><g fill="#000" fill-rule="nonzero" transform="translate(151 166)"><path d="m406.872 153.017c-.005 0-.011 0-.016 0h-400c-3.782-.004-6.852 3.058-6.856 6.84v.016 192c-.004 3.782 3.058 6.852 6.84 6.856h.016 272c3.786 0 6.856-3.07 6.856-6.856s-3.07-6.856-6.856-6.856h-265.144v-178.288h386.288v17.144c-.004 3.782 3.058 6.852 6.84 6.856h.016c3.782.004 6.852-3.058 6.856-6.84 0-.005 0-.011 0-.016v-24c.004-3.782-3.058-6.851-6.84-6.856z"/><path d="m360.36 121.185-320-72c-1.776-.397-3.637-.075-5.176.896-1.537.979-2.624 2.526-3.024 4.304l-16 72c-.822 3.698 1.51 7.362 5.208 8.184s7.362-1.51 8.184-5.208l14.504-65.288 313.296 70.488c.496.115 1.003.172 1.512.168 3.786-.007 6.85-3.082 6.844-6.868-.006-3.201-2.226-5.971-5.348-6.676z"/><path d="m321.504 81.513-192-80c-3.337-1.391-7.182.038-8.8 3.272l-16 32c-1.807 3.342-.563 7.517 2.78 9.324 3.342 1.807 7.517.563 9.324-2.78.071-.131.138-.265.2-.401v.016l13.128-26.272 186.072 77.528c3.504 1.462 7.53-.192 8.992-3.696 1.462-3.502-.192-7.528-3.696-8.991z"/><path d="m326.352 185.017h-63.496c-3.786 0-6.856 3.07-6.856 6.856s3.07 6.856 6.856 6.856h63.496c3.786 0 6.856-3.07 6.856-6.856s-3.07-6.856-6.856-6.856z"/><path d="m198.856 185.473c-38.881 0-70.4 31.519-70.4 70.4.04 38.864 31.536 70.36 70.4 70.4 38.881 0 70.4-31.519 70.4-70.4s-31.519-70.4-70.4-70.4zm0 128c-31.812 0-57.6-25.788-57.6-57.6.035-31.797 25.803-57.565 57.6-57.6 31.812 0 57.6 25.788 57.6 57.6s-25.788 57.6-57.6 57.6z"/><path d="m390.856 207.873c-42.4 0-88 10.016-88 32v192c0 21.984 45.6 32 88 32s88-10.016 88-32v-192c0-21.984-45.6-32-88-32zm72 223.88c-1.208 4.44-25.2 16.12-72 16.12s-70.792-11.68-72-16v-12.576c17.024 8.576 45.144 12.576 72 12.576s54.984-4.04 72-12.584zm0-32c-1.208 4.44-25.2 16.12-72 16.12s-70.792-11.68-72-16v-12.576c17.024 8.576 45.144 12.576 72 12.576s54.984-4.04 72-12.584zm0-32c-1.208 4.44-25.2 16.12-72 16.12s-70.792-11.68-72-16v-12.576c17.024 8.576 45.144 12.576 72 12.576s54.984-4.04 72-12.584zm0-32c-1.208 4.44-25.2 16.12-72 16.12s-70.792-11.68-72-16v-12.576c17.024 8.576 45.144 12.576 72 12.576s54.984-4.04 72-12.584zm0-32c-1.208 4.44-25.2 16.12-72 16.12s-70.792-11.68-72-16v-12.576c17.024 8.536 45.144 12.576 72 12.576s54.984-4.04 72-12.584zm0-32c-1.208 4.44-25.2 16.12-72 16.12s-70.792-11.68-72-16v-12.576c17.024 8.536 45.144 12.576 72 12.576s54.984-4.04 72-12.584zm-72-15.88c-46.728 0-70.712-11.648-72-15.856v-.048c1.288-4.456 25.272-16.096 72-16.096 46.4 0 70.4 11.472 72 16-1.6 4.528-25.6 16-72 16z"/><path d="m134.856 313.009h-60.472l-28.672-31.36v-52l31.664-30.92h57.48c3.786 0 6.856-3.07 6.856-6.856s-3.07-6.856-6.856-6.856h-60.264c-1.792-.004-3.515.694-4.8 1.944l-35.736 34.856c-1.335 1.56-2.067 3.547-2.064 5.6v56.896c0 1.711.639 3.36 1.792 4.624l32.504 35.552c1.299 1.422 3.137 2.233 5.064 2.232h63.504c3.786 0 6.856-3.07 6.856-6.856s-3.069-6.856-6.856-6.856z"/><path d="m202.856 247.873h-8c-2.488 0-4-1.392-4-2s1.512-2 4-2h20c4.418 0 8-3.582 8-8s-3.582-8-8-8h-8c0-4.418-3.582-8-8-8s-8 3.582-8 8v.36c-8.873 1.253-15.595 8.648-16 17.6.573 10.489 9.507 18.548 20 18.04h8c2.488 0 4 1.392 4 2s-1.512 2-4 2h-20c-4.418 0-8 3.582-8 8s3.582 8 8 8h8c0 4.418 3.582 8 8 8s8-3.582 8-8v-.36c8.873-1.253 15.595-8.648 16-17.6-.573-10.489-9.507-18.548-20-18.04z"/></g></g></svg>